<svg xmlns="http://www.w3.org/2000/svg" viewBox="0 0 550 414">
	<path d="M237.117 2.52443C253.331 2.10993 269.166 2.87641 285.046 6.45845C320.102 14.366 351.944 34.4273 371.271 65.1581C386.407 89.224 392.658 117.693 386.196 145.635C377.058 185.147 347.5 211.245 308.098 218.695C305.416 219.202 302.685 219.702 299.97 219.988C294.002 220.615 286.592 220.132 281.361 223.471C271.883 229.522 278.511 246.01 276.602 253.993C275.777 257.446 273.747 259.417 270.82 261.242C269.739 261.735 268.544 262.182 267.352 262.289C263.07 262.674 254.606 260.762 249.636 260.497C243.859 260.188 237.023 261.398 231.493 260.524C229.168 260.157 227 259.248 225.186 257.737C223.051 255.958 221.874 253.607 221.63 250.852C221.293 247.038 221.521 243.045 221.529 239.213C221.517 231.155 221.603 223.097 221.786 215.041C221.939 205.295 220.254 194.945 222.964 185.425C223.917 182.078 225.292 179 227.729 176.466C240.829 162.85 272.767 169.891 289.032 149.907C295.93 141.431 297.417 129.948 296.275 119.399C294.747 105.279 286.195 93.0933 275.336 84.3807C262.514 74.0212 246.098 69.186 229.707 70.9418C225.482 71.4201 221.469 73.1323 217.284 73.5375C215.241 73.7353 213.312 73.0653 211.748 71.7511C210.404 70.6217 209.364 69.257 208.903 67.5417C208.09 64.5197 208.135 61.1202 207.839 58.0083C207.589 55.3914 207.058 52.768 206.505 50.2011C205.211 44.2016 203.5 38.234 201.754 32.352C200.368 27.6828 198.48 22.7061 198.083 17.8461C197.869 15.2155 198.466 12.6437 200.211 10.6096C202.153 8.34525 205.004 6.64351 207.834 5.75358C210.106 5.0391 212.479 5.13142 214.823 4.84617C222.266 3.94023 229.634 3.07065 237.117 2.52443Z" />
	<path d="M438.55 49.1888C453.36 49.9888 472.714 56.9741 485.498 64.5156C514.391 81.3016 535.444 108.859 544.04 141.143C551.683 170.619 545.429 202.395 530.076 228.318C514.166 255.556 488.259 275.519 457.861 283.965C449.442 286.236 440.64 286.452 432.242 288.651C428.361 289.633 424.771 291.532 421.774 294.187C412.444 302.356 418.104 309.086 413.132 317.512C412.377 318.947 411.101 320.075 409.676 320.82C408.08 321.655 406.181 322.095 404.394 321.763C400.933 321.12 397.891 319.576 394.649 318.319C390.841 316.879 386.999 315.535 383.125 314.286C378.993 312.982 374.791 311.753 370.573 310.763C367.45 310.031 364.215 309.505 361.158 308.543C358.279 307.636 355.348 306.007 353.926 303.22C352.435 300.297 352.914 296.71 353.914 293.711C355.955 287.59 359.902 281.792 362.823 276.027C368.658 264.509 374.437 253 380.499 241.598C382.786 237.297 384.682 232.384 387.652 228.512C388.679 227.172 390.511 226.447 392.111 226.031C395.775 225.08 399.625 226.414 403.232 227.098C412.075 228.697 421.198 227.369 429.219 223.318C440.339 217.722 448.279 207.289 452.123 195.555C457.878 177.989 456.834 147.362 448.44 130.846C444.564 123.218 437.846 115.391 428.568 115.5C425.54 115.536 422.318 116.192 419.383 115.192C417.211 114.452 415.68 112.936 414.69 110.897C414.108 109.697 413.774 108.494 413.934 107.15C414.458 102.761 416.651 97.9488 418.02 93.7443C419.873 88.0581 421.538 82.3097 423.447 76.6422C426.152 68.6096 430.688 53.0932 438.55 49.1888Z" />
	<path d="M260.55 303.506C268.243 303.258 276.358 304.236 282.811 308.796C289.21 313.318 293.643 320.901 294.938 328.569C297.002 340.787 293.604 354.485 286.37 364.524C281.118 371.814 273.405 376.857 264.508 378.308C256.335 379.219 248.129 376.904 241.638 371.857C234.762 366.557 230.571 359.144 229.462 350.545C227.916 338.56 230.499 324.782 238.036 315.1C243.904 307.562 251.346 304.641 260.55 303.506Z" />
	<path d="M162.669 339.181C170.654 338.247 179.211 340.159 186.066 344.309C192.732 348.345 198.032 355.796 199.858 363.351C202.325 373.564 200.389 384.96 194.873 393.874C189.956 401.821 182.772 407.237 173.646 409.395C172.926 409.549 172.202 409.68 171.474 409.786C164.129 410.787 156.186 409.115 150.294 404.501C141.862 397.896 136.929 387.274 135.647 376.774C134.553 367.813 136.495 357.27 142.215 350.047C147.049 343.941 155.069 340.107 162.669 339.181Z" />
	<path d="M348.773 320.682C348.823 320.675 348.872 320.665 348.922 320.661C355.506 320.183 363.22 322.954 368.329 327.041C375.119 332.368 379.499 340.187 380.493 348.759C381.511 358.172 378.701 367.598 372.695 374.918C366.873 381.979 358.482 386.439 349.37 387.315C349.247 387.332 349.124 387.354 349.001 387.368C341.255 388.272 332.712 385.619 326.812 380.554C319.192 374.013 318.059 364.744 317.354 355.344C316.711 346.786 319.896 338.063 325.516 331.6C331.411 324.82 339.939 321.274 348.773 320.682Z" />
	<path d="M0 90.8299C0.0751893 90.7208 0.156022 90.6153 0.225568 90.5025C1.51516 88.4106 -0.0658085 84.4401 2.84133 80.798C3.93984 79.4217 5.29575 78.4836 6.82877 77.6422C10.7879 75.4692 15.3111 73.9963 19.5158 72.3388C29.7189 68.2132 40.0792 64.4871 50.573 61.169C85.4383 50.2244 125.834 46.4477 159.272 63.9964C179.621 74.6757 195.854 91.0016 202.82 113.287C209.6 134.974 205.275 157.814 194.858 177.556C186.389 193.607 174.573 207.855 162.188 221.037C159.656 223.76 157.09 226.452 154.491 229.111C152.039 231.582 149.354 233.86 147.362 236.741C146.102 238.563 146.078 239.988 146.721 242.078C147.516 244.661 149.233 247.244 150.459 249.667C154.104 256.867 157.765 264.036 161.312 271.289C163.121 274.987 165.63 279.034 166.467 283.071C166.89 285.114 166.777 287.368 165.828 289.256C163.138 294.602 154.766 296.569 149.687 298.977C146.617 300.445 143.643 302.105 140.781 303.945C135.44 307.31 130.895 311.121 126.459 315.609C122.532 319.582 117.005 327.96 111.632 329.355C108.983 330.043 105.453 328.499 103.267 327.098C101.225 325.789 99.9213 323.793 98.7342 321.722C96.4948 317.816 94.6862 313.543 92.7867 309.46C88.9634 301.223 85.2148 292.951 81.5412 284.646C76.5796 273.678 69.6231 262.6 67.1145 250.754C64.9626 240.592 68.0294 231.593 73.5741 223.168C78.9905 214.937 86.9253 208.422 94.6728 202.446C108.277 191.952 130.975 179.299 126.809 158.933C125.022 150.197 118.685 142.782 111.398 138.003C102.848 132.395 92.4929 130.836 82.58 132.966C66.7927 136.359 54.1779 146.999 44.2902 159.321C41.5435 162.744 39.3191 167.051 35.4639 169.386C32.3952 171.244 28.4104 170.627 25.513 168.73C24.2164 167.881 23.2666 166.843 22.4693 165.518C19.9529 161.338 18.4343 156.154 16.6664 151.59C10.99 136.937 5.04053 121.937 1.99015 106.47C1.38467 103.4 1.176 98.0833 0 95.4336L0 90.8299Z" />
</svg>