<svg xmlns="http://www.w3.org/2000/svg" viewBox="-150 -150 1300 1300">
	<path d="
		M 400 300
		h 200
		v -100
		a 200 200 0 1 1 200 200
		h -100
		v 200
		h 100
		a 200 200 0 1 1 -200 200
		v -100
		h -200
		v 100
		a 200 200 0 1 1 -200 -200
		h 100
		v -200
		h -100
		a 200 200 0 1 1 200 -200
		Z
		M 300 300
		v -100
		a 100 100 0 1 0 -100 100
		Z
		M 700 300
		h 100
		a 100 100 0 1 0 -100 -100
		Z
		M 700 700
		v 100
		a 100 100 0 1 0 100 -100
		Z
		M 300 700
		h -100
		a 100 100 0 1 0 100 100
		Z
		M 400 400
		v 200
		h 200
		v -200
		Z
	" />
</svg>