<svg xmlns="http://www.w3.org/2000/svg" viewBox="217.9 28.8 11.2 11.2">
	<circle cx="223.5" cy="34.4" r="5.5" fill="#039" />
	<path fill="white" d="M 222.65004,38.865962 V 34.252458 H 222.002 V 32.84576 h 2.44797 v 6.026828 h -1.79993 m 1.93196,-8.106414 c 0,0.150988 -0.0281,0.298025 -0.0844,0.441082 -0.0549,0.1339 -0.13682,0.255497 -0.24001,0.357637 -0.0958,0.103283 -0.21201,0.186766 -0.348,0.250343 -0.13599,0.05567 -0.27998,0.08341 -0.43198,0.08341 -0.16001,0 -0.30801,-0.02783 -0.44399,-0.08341 -0.12809,-0.06354 -0.24003,-0.147031 -0.33601,-0.250343 -0.0958,-0.103367 -0.172,-0.222527 -0.22799,-0.357637 -0.0562,-0.14305 -0.0844,-0.290088 -0.0844,-0.441082 0,-0.302007 0.10372,-0.560297 0.31201,-0.774886 0.20262,-0.22034 0.49172,-0.342187 0.792,-0.333787 0.1456,-0.0017 0.28948,0.03123 0.41999,0.0954 0.136,0.05566 0.25201,0.13512 0.34801,0.238426 0.1032,0.102149 0.18479,0.223731 0.24,0.357636 0.0562,0.127163 0.0844,0.266241 0.0844,0.417242" />
</svg>