<svg xmlns="http://www.w3.org/2000/svg" viewBox="37 10 260 260">
	<defs>
		<linearGradient id="gradient" x1="0" x2="1" y1="0" y2="0" gradientTransform="translate(40 135) scale(253)" gradientUnits="userSpaceOnUse">
			<stop offset="0" stop-color="#23dbf9"/>
			<stop offset="1" stop-color="#ff64bd"/>
		</linearGradient>
	</defs>
	<path fill="url('#gradient')" fill-rule="nonzero" d="M88.613 135.704c0 3.897.333 7.795.817 11.509.183 1.4-.528 2.768-1.754 3.469-31.325 17.882-52.184 34.096-46.148 43.47 7.633 11.852 40.104 8.281 72.089.325 54.056-13.361 87.577-27.147 100.98-34.176-12.986 35.454-56.436 48.307-86.694 39.859-1.105-.309-1.623 1.46-.811 1.948 11.04 6.331 24.029 9.74 37.667 9.74 39.476 0 71.873-29.576 75.971-67.978a3.533 3.533 0 0 1 1.797-2.723c33.941-18.674 54.493-36.442 50.658-45.872-2.876-7.506-20.519-8.571-46.439-3.966a3.501 3.501 0 0 0-2.105 1.245c-27.554 33.865-98.33 64.712-135.947 59.247-2.761-.487-2.646-4.373.44-4.696 42.865-2.848 107.923-37.969 112.001-56.211a3.375 3.375 0 0 0-.377-2.442c-7.405-12.619-31.504-29.058-55.999-29.058-42.213 0-76.146 33.933-76.146 76.31Z" />
</svg>