<svg xmlns="http://www.w3.org/2000/svg" viewBox="46 40 320 320">
	<path d="M211.348 47.8701C243.081 47.2058 274.313 55.8551 301.183 72.7488C309.147 77.8431 316.329 83.661 323.624 89.641C321.884 93.102 319.121 96.2415 316.934 99.4484L297.868 127.065C295.209 130.911 291.533 135.363 289.392 139.435C287.044 137.23 284.313 135.226 281.776 133.235C271.086 124.847 259.595 117.311 246.496 113.319C222.959 106.146 195.281 107.387 173.381 119.068C153.112 129.814 137.941 148.172 131.208 170.104C123.356 196.193 125.239 227.908 138.292 252.033C148.663 271.201 167.334 285.73 188.115 291.882C208.645 297.961 237.769 294.554 257.517 286.875C261.179 285.451 264.575 283.67 268.029 281.8L268.015 200.286L320.875 200.293L334.907 200.343C334.659 203.721 334.785 207.204 334.783 210.595L334.777 227.763L334.789 277.679C334.792 286.837 335.045 296.061 334.691 305.207C333.798 306.669 332.696 307.919 331.514 309.155C329.257 311.514 326.767 313.686 324.351 315.881C294.261 343.214 257.175 353.782 217.216 354.764C184.047 355.579 151.001 347.551 123.456 328.627C116.05 323.445 109.071 317.678 102.585 311.382C73.2909 283.503 59.3805 246.473 58.4284 206.458C57.4466 165.196 70.1496 126.64 98.9619 96.4926C124.126 70.1624 155.463 53.4676 191.771 49.0263C198.284 48.2297 204.796 48.0121 211.348 47.8701Z"/>
</svg>