<svg xmlns="http://www.w3.org/2000/svg" viewBox="90 90 844 844">
	<path fill="#DDDFF6" d="M295.705 103.244C332.366 102.625 369.108 103.081 405.776 103.079L605.787 103.059L704.247 103.057C733.809 103.022 763.552 101.799 792.759 107.276C822.882 112.924 852.424 125.774 874.824 147.101C915.538 185.863 923.87 231.646 925.31 285.185C926.229 319.373 925.451 353.782 925.458 387.997L925.451 587.613L925.444 693.966C925.441 723.578 926.881 754.249 921.368 783.468C915.356 815.331 901.913 845.743 879.379 869.387C837.893 912.916 787.574 919.679 730.625 920.901C625.821 922.118 520.916 921.174 416.1 921.176C381.346 921.261 346.592 921.16 311.838 920.872C286.594 920.653 260.544 921.55 235.661 916.849C203.875 910.844 175.477 898.777 151.993 875.977C140.458 864.78 130.66 851.922 122.925 837.829C100.835 798.366 99.6707 760.317 99.0966 716.309C98.6452 681.708 99.0744 647.049 99.099 612.443L99.1263 418.067L99.1156 324.694C99.0612 294.943 97.6839 263.988 103.371 234.635C109.264 204.216 122.582 175.151 144.374 152.848C187.287 108.929 237.836 103.91 295.705 103.244Z"/>
	<path fill="#3A424D" d="M500.792 188.217C522.147 187.429 543.511 189.498 564.318 194.369C597.799 202.274 624.898 216.308 651.7 237.852C656.75 241.911 663.914 246.664 667.202 252.327C669.213 255.79 670.194 260.485 669.002 264.38C668.231 266.904 666.554 268.894 664.169 270.037C660.462 271.813 655.838 271.381 652.271 269.473C646.298 266.278 640.499 258.67 634.756 254.317C616.389 240.683 596.128 229.806 574.615 222.03C581.393 231.33 588.219 240.718 593.951 250.714C603.373 267.144 610.087 285.453 616.246 303.308C625.333 303.631 634.452 303.426 643.543 303.403C648.936 303.39 654.766 302.975 660.078 304.035C661.629 304.344 662.775 304.84 663.98 305.873C666.892 308.367 668.171 312.602 668.274 316.321C668.353 319.184 667.76 322.427 665.6 324.492C659.462 330.36 631.958 328.517 623.276 328.535C624.134 337.311 626.294 346.124 627.465 354.904C629.471 369.936 630.147 384.887 630.49 400.036C658.421 400.758 686.676 400.793 714.605 400.116C714.606 391.419 710.3 376.012 712.099 369.019C713.293 364.372 716.413 361.945 720.272 359.542C722.13 359.448 723.993 359.451 725.851 359.551C728.315 359.668 730.855 360.25 732.489 362.26C739.535 370.924 739.397 418.272 738.276 430.508C737.321 440.934 735.17 463.495 726.921 470.004C722.297 473.654 717.108 473.066 711.665 472.292C711.208 471.862 710.764 471.42 710.333 470.964C708.468 468.963 706.754 466.23 706.612 463.421C706.332 457.881 709.477 450.921 710.728 445.478C712.324 438.582 713.311 431.559 713.678 424.49L630.562 424.49C629.635 433.241 629.622 442.093 628.745 450.866C627.224 466.074 624.503 480.956 621.703 495.967C630.354 495.982 664.226 494.63 669.463 498.007C670.395 498.608 670.692 499.177 670.746 500.314C670.825 501.957 662.329 517.487 660.771 519.086C659.566 520.323 658.01 520.499 656.374 520.648C651.464 521.098 646.196 520.535 641.263 520.4C632.514 520.134 623.76 520.082 615.008 520.244C605.195 549.091 591.43 578.379 571.647 601.816C589.504 596.53 607.634 588.066 622.641 577.043C628.505 572.736 635.261 565.194 641.807 562.413C643.797 561.567 646.561 562.34 648.449 563.247C650.101 564.04 651.47 565.616 651.989 567.38C653.002 570.824 654.456 579.727 652.446 582.866C649.54 587.403 644.126 591.171 639.882 594.419C615.623 612.982 586.625 624.886 556.874 631.145C536.355 635.19 515.384 636.451 494.528 634.893C458.201 632.272 422.013 620.936 391.857 600.255C387.957 597.58 381.675 594.292 378.72 590.635C374.883 585.886 375.439 578.77 376.331 573.089C376.761 570.357 377.571 566.904 380.177 565.406C381.912 564.409 383.603 564.795 385.279 565.607C391.384 568.564 396.833 573.951 402.447 577.815C417.912 588.458 435.573 597.625 453.636 602.781C433.012 579.083 419.882 549.848 409.16 520.671C403.465 520.577 386.885 522.29 382.841 518.993C380.104 516.762 379.082 512.848 378.848 509.47C378.629 506.299 379.131 500.882 381.521 498.503C385.343 494.699 397.549 496.363 402.883 496.388C397.878 470.858 395.954 450.4 394.443 424.528L312.318 424.499C312.483 430.562 313.133 436.602 314.263 442.561C315.536 449.565 319.009 458.411 317.918 465.479C317.339 469.231 314.901 471.303 311.969 473.409C308.408 473.681 304.259 474.094 300.865 472.799C297.503 471.517 295.621 468.995 294.243 465.785C284.836 443.871 285.345 404.124 288.451 380.575C289.147 375.295 289.74 369.207 291.922 364.326C292.919 362.096 294.493 360.497 296.803 359.652C300.203 358.408 305.662 358.515 308.898 360.202C312.665 362.166 314.394 366.063 315.725 369.86C313.901 379.925 312.62 389.863 312.019 400.071C339.518 400.594 367.34 400.997 394.822 400.081C395.25 390.793 395.395 381.463 396.175 372.199C397.415 357.466 399.764 343.049 402.392 328.516C395.027 328.434 381.453 330.719 375.542 325.833C373.113 323.825 371.966 320.882 371.822 317.784C371.641 313.877 372.486 308.266 375.343 305.332C376.343 304.305 377.613 303.581 379.006 303.244C385.391 301.686 401.163 303.304 408.777 303.402C418.742 273.669 431.167 246.471 450.613 221.638C433.537 228.151 416.834 235.457 401.634 245.712C394.284 250.666 387.288 256.124 380.695 262.049C376.626 265.691 372.736 269.799 368.42 273.131C366.937 274.276 364.983 275.653 363.076 275.925C361.632 276.131 360.066 275.53 358.944 274.64C355.361 271.799 352.084 262.248 351.607 257.702C351.338 255.135 352.692 252.719 354.335 250.866C358.714 245.925 366.722 240.438 372.111 236.167C409.814 206.292 452.662 190.361 500.792 188.217Z"/>
	<path fill="#DDDFF6" d="M427.819 328.515L500.868 328.57L500.897 400.281L492.917 400.28C468.568 400.297 444.057 400.852 419.725 400.047C418.567 378.714 423.592 349.545 427.819 328.515Z"/>
	<path fill="#DDDFF6" d="M419.638 424.537C446.69 424.077 473.822 424.506 500.883 424.502C501.423 448.45 501.088 472.574 500.848 496.534L428.823 496.487C423.166 473.193 419.514 448.545 419.638 424.537Z"/>
	<path fill="#DDDFF6" d="M525.439 328.543L597.028 328.522C602.537 351.561 606.81 376.091 605.779 399.861C596.913 401.036 587.047 400.233 578.086 400.222L525.471 400.061L525.439 328.543Z"/>
	<path fill="#DDDFF6" d="M525.464 424.498L605.474 424.482C606.274 445.6 602.251 467.656 597.782 488.22L595.657 496.361C572.27 496.313 548.854 496.721 525.473 496.295L525.464 424.498Z"/>
	<path fill="#DDDFF6" d="M498.386 214.631C499.374 214.507 499.576 214.5 500.493 214.869C501.504 217.22 500.939 294.669 500.788 303.336C479.868 303.974 458.81 303.474 437.875 303.464C437.297 303.446 436.616 303.302 436.04 303.221L435.689 302.094C437.286 292.668 451.259 265.816 456.997 256.82C464.126 245.644 478.127 225.032 489.013 218.053C492.01 216.132 494.971 215.385 498.386 214.631Z"/>
	<path fill="#DDDFF6" d="M525.495 214.056C530.618 214.83 534.587 216.717 538.578 219.984C558.985 236.686 574.309 264.941 584.504 288.867C586.282 293.04 589.317 298.664 589.79 303.151C581.611 303.773 573.2 303.444 564.995 303.453C551.826 303.515 538.658 303.483 525.49 303.356C524.903 273.658 525.206 243.761 525.495 214.056Z"/>
	<path fill="#DDDFF6" d="M437.555 520.743C458.599 520.226 479.847 520.54 500.897 520.918C500.187 541.945 500.74 563.165 500.806 584.208C500.832 592.754 501.126 601.4 500.649 609.932C493.099 607.32 487.412 603.863 481.751 598.188C463.842 580.236 450.774 556.768 441 533.581C439.561 530.167 436.64 524.919 436.661 521.317L437.555 520.743Z"/>
	<path fill="#DDDFF6" d="M525.552 520.616L588.512 520.497C581.539 541.965 571.653 561.011 558.851 579.571C549.419 591.731 540.14 603.281 525.536 609.192C525.039 579.711 525.408 550.104 525.552 520.616Z"/>
	<path fill="#3A424D" d="M352.571 669.183C360.653 668.945 372.722 668.092 380.436 669.351C381.905 669.591 383.734 669.971 384.44 671.425C386.416 675.488 385.27 686.519 385.269 691.396L385.287 750.23C385.297 762.386 384.532 775.297 386.307 787.32C387.159 793.084 388.753 799.237 392.189 804.039C397.317 811.208 405.727 815.224 414.234 816.722C426.116 818.814 441.293 818.077 451.361 810.68C457.162 806.418 460.445 800.05 462.147 793.188C464.908 782.057 463.588 765.432 463.588 753.754L463.519 696.691C463.493 689.49 462.485 680.153 463.807 673.218C464.066 671.86 464.323 670.746 465.618 670.031C468.342 668.526 495.242 668.668 498.725 669.642C501.81 673.083 500.35 700.353 500.325 706.123L500.356 757.288C500.358 772.239 501.361 788.369 498.04 803.025C494.645 818.008 486.349 830.727 473.212 838.899C452.158 851.995 419.22 852.96 395.727 847.299C379.894 843.484 365.827 835.664 357.283 821.381C352.873 814.011 350.434 805.511 349.346 797.036C347.802 785.017 347.68 676.091 348.871 672.886C349.607 670.906 350.757 670.111 352.571 669.183Z"/>
	<path fill="#3A424D" d="M728.836 493.15C734.742 492.193 742.033 492.895 747.783 494.515C764.537 499.237 773.238 512.148 781.275 526.572C783.915 519.061 786.192 504.799 790.206 498.835C791.71 496.601 793.984 494.805 796.689 494.35C799.735 493.838 803.113 495.116 805.565 496.87C806.912 497.833 807.377 498.905 807.314 500.543C807.089 506.42 804.127 512.484 802.122 517.951L792.268 545.291C790.073 551.411 787.28 557.867 786.139 564.278C785.129 569.958 786.093 576.858 786.869 582.519C787.579 587.697 788.911 595.752 793.581 598.841C797.18 601.222 801.865 597.198 805.658 596.447C807.081 596.165 808.81 596.166 809.973 597.156C811.085 598.102 811.347 599.618 811.452 600.991C811.82 605.824 810.575 610.958 807.259 614.587C802.166 620.159 795.005 621.481 787.841 621.658C784.122 621.481 781.453 620.94 778.488 618.54C771.942 613.242 770.085 602.603 769.306 594.686C758.903 606.501 747.628 618.295 731.429 621.103C718.963 623.263 705.28 621.376 694.846 613.899C683.397 605.696 677.813 592.357 675.622 578.832C672.194 557.662 675.665 535.734 688.399 518.132C697.962 504.697 712.542 495.689 728.836 493.15Z"/>
	<path fill="#DDDFF6" d="M736.872 510.206C740.081 509.906 743.303 510.61 746.095 512.219C753.896 516.746 757.914 526.417 760.082 534.745C764.474 551.617 764.463 570.032 755.32 585.323C749.276 595.432 741.257 602.679 729.746 605.639C723.781 606.367 718.563 605.851 713.696 601.922C706.391 596.025 703.685 586.085 702.799 577.133C700.935 558.299 702.949 536.194 715.472 521.113C721.166 514.254 728.058 511.034 736.872 510.206Z"/>
	<path fill="#3A424D" d="M262.399 195.029L299.58 195.061C303.957 205.058 307.586 215.511 311.48 225.708L332.934 281.761L348.191 321.15C351.486 329.672 355.231 338.258 357.488 347.117C356.887 348.358 356.13 349.011 354.809 349.479C351.935 350.496 327.954 350.703 325.768 349.225C322.387 346.937 312.593 315.455 310.459 309.454L302.625 309.392L253.343 309.337C248.023 322.731 244.085 336.69 238.605 350.025C231.597 350.064 215.576 351.089 209.749 349.659C208.484 349.348 207.444 349.068 206.843 347.81C206.135 346.327 207.206 343.537 207.68 342.004C213.243 324.002 220.807 306.157 227.402 288.489L262.399 195.029Z"/>
	<path fill="#DDDFF6" d="M280.751 226.253C283.586 228.396 300.977 278.662 303.507 286.005L282.75 286.073L259.094 286.017C262.685 274.603 266.867 263.323 270.872 252.05C273.934 243.433 276.726 234.477 280.751 226.253Z"/>
	<path fill="#3A424D" d="M241.435 486.25L324.514 486.155L349.974 486.139C353.793 486.133 357.765 485.768 361.565 486.077C363.166 486.207 364.765 486.652 366.01 487.71C368.014 489.41 368.724 492.164 368.811 494.692C368.92 497.868 368.204 503.557 365.564 505.762C364.194 506.906 362.828 507.009 361.123 507.176C354.224 507.853 346.761 507.252 339.812 507.218C326.086 507.164 312.36 507.188 298.634 507.291C298.493 516.697 298.399 526.188 298.776 535.587C304.457 532.089 310.19 529.716 316.864 528.997C326.163 527.995 335.699 529.97 343.064 535.946C350.8 542.223 355.043 551.938 356.031 561.703C357.169 572.951 354.506 584.614 347.214 593.423C343.03 598.476 336.341 604.173 329.559 604.647C326.836 604.837 324.427 603.896 322.437 602.044C320.052 599.825 317.772 596.398 317.874 593.014C318.06 586.829 324.56 583.943 328.446 580.122C332.187 576.445 333.888 571.46 333.686 566.274C333.469 560.715 331.447 556.621 327.402 552.871C323.475 550.528 319.745 549.05 315.055 549.581C308.242 550.353 302.694 555.011 298.616 560.223C298.336 573.903 298.572 587.638 298.617 601.324C298.637 607.412 299.157 613.852 298.486 619.88C298.271 621.816 297.817 624.708 296.298 626.104C294.915 627.376 292.628 627.561 290.857 627.622C287.128 627.751 281.686 628.177 278.928 625.304C274.736 620.938 276.26 604.471 276.241 598.223C266.352 601.553 255.678 602.542 245.566 599.504C236.837 596.922 229.538 590.894 225.351 582.811C220.364 573.347 219.58 561.351 222.754 551.181C225.509 542.349 231.342 535.306 239.543 531.022C250.824 525.128 264.21 525.071 276.168 528.734C276.431 521.574 276.308 514.42 276.218 507.257C260.732 507.077 245.228 507.201 229.742 507.2C224.675 507.199 218.486 508.072 213.576 507.339C211.865 507.097 210.259 506.37 208.948 505.245C206.654 503.255 205.573 500.098 205.432 497.137C205.297 494.286 206.029 491.288 208.11 489.225C212.925 484.451 234.691 486.259 241.435 486.25Z"/>
	<path fill="#DDDFF6" d="M262.126 545.188C267.286 545.115 271.505 546.376 276.289 548.167C276.33 557.899 276.51 567.654 276.223 577.382C270.917 581.096 265.978 582.153 259.64 581.897C256.264 581.2 253.199 580.345 250.357 578.268C246.466 575.424 244.169 571.258 243.568 566.502C242.913 561.317 244.223 556.054 247.609 552.022C251.481 547.41 256.368 545.803 262.126 545.188Z"/>
	<path fill="#3A424D" d="M748.826 195.579C749.869 195.541 750.912 195.511 751.955 195.49C755.907 195.412 761.301 194.934 764.274 198.077C767.949 201.961 766.433 213.284 766.398 218.518C778.025 218.583 789.653 218.575 801.28 218.493C807.765 218.442 814.85 217.822 821.272 218.549C822.904 218.734 824.754 218.973 826.039 220.095C828.286 222.057 828.832 225.592 828.945 228.398C829.102 232.281 828.774 237.554 825.851 240.458C825.186 241.119 824.188 241.818 823.268 242.016C818.982 242.938 809.316 242.095 804.533 242.061C797.006 267.094 790.254 280.091 773.993 301.074C784.661 309.538 796.373 316.027 808.175 322.723C811.671 324.707 818.853 327.822 819.809 331.953C820.556 335.181 819.003 339.061 817.26 341.718C815.753 344.017 813.329 346.437 810.483 346.845C801.091 348.191 766.74 323.865 757.883 317.389C756.894 317.377 756.177 317.625 755.339 318.142C740.498 327.305 720.393 343.531 703.203 347.241C703.051 347.195 702.899 347.147 702.746 347.102C698.944 345.989 696.468 344.591 693.975 341.416C692.184 339.136 690.968 336.226 691.496 333.292C691.842 331.376 692.918 329.49 694.439 328.275C699.168 324.495 705.769 321.872 711.117 318.98C721.022 313.623 730.898 307.858 739.932 301.118C735.998 294.628 730.753 288.775 726.375 282.563C717.734 270.305 712.474 256.294 708.425 241.959C702.548 241.89 689.032 244.134 684.69 240.36C681.813 237.859 681.257 232.854 681.136 229.224C681.033 226.128 681.794 223.199 684.032 220.962C685.297 219.697 686.406 219.134 688.154 218.844C694.185 217.843 701.028 218.462 707.168 218.466L743.916 218.505C743.892 212.665 742.874 204.519 745 199.097C745.806 197.042 746.888 196.375 748.826 195.579Z"/>
	<path fill="#DDDFF6" d="M732.058 242.033L780.313 242.068C777.041 253.178 772.993 262.846 766.772 272.635C763.765 277.298 760.402 281.593 756.73 285.748C744.864 272.819 737.83 258.374 732.058 242.033Z"/>
	<path fill="#3A424D" d="M591.396 689.754C595.56 689.691 612.73 688.704 614.997 691.162C617.677 694.068 616.392 735.765 616.325 743.527C624.619 743.61 664.029 742.348 668.657 744.569C669.339 745.958 669.481 747.187 669.576 748.726C669.789 752.203 670.265 769.506 668.335 771.667C661.593 773.81 625.931 772.571 616.426 772.698C616.426 780.356 617.504 824.745 615.418 827.805C613.891 828.794 612.215 828.69 610.457 828.78C603.163 828.616 594.268 830.016 587.232 828.301C586.101 827.051 585.866 825.203 585.666 823.582C584.967 817.906 585.408 811.795 585.416 806.076L585.392 772.79C574.62 772.126 541.589 774.213 534.82 771.68C531.12 768.129 532.72 758.81 532.552 754.026C532.441 750.865 532.357 747.556 534.766 745.149C535.714 744.202 536.771 743.96 538.054 743.774C543.49 742.985 549.561 743.499 555.06 743.516C565.168 743.577 575.276 743.571 585.384 743.497C585.448 737.21 584.664 694.565 585.697 692.053C585.885 691.594 586.243 691.225 586.516 690.811C588.05 689.801 589.606 689.864 591.396 689.754Z"/>
</svg>